<?xml version="1.0" encoding="UTF-8"?>
<svg width="18px" height="18px" viewBox="0 0 18 18" version="1.1" xmlns="http://www.w3.org/2000/svg" xmlns:xlink="http://www.w3.org/1999/xlink">
    <!-- Generator: sketchtool 58 (101010) - https://sketch.com -->
    <title>7CAE661B-252E-4893-9803-41B4B2F26345</title>
    <desc>Created with sketchtool.</desc>
    <defs>
        <path d="M9,17.25 C4.425,17.25 0.75,13.575 0.75,9 C0.75,4.425 4.425,0.75 9,0.75 C13.575,0.75 17.25,4.425 17.25,9 C17.25,13.575 13.575,17.25 9,17.25 Z M9,2.25 C5.25,2.25 2.25,5.25 2.25,9 C2.25,12.75 5.25,15.75 9,15.75 C12.75,15.75 15.75,12.75 15.75,9 C15.75,5.25 12.75,2.25 9,2.25 Z M9.75,9 L9.75,6 C9.75,5.55 9.45,5.25 9,5.25 C8.55,5.25 8.25,5.55 8.25,6 L8.25,9 C8.25,9.45 8.55,9.75 9,9.75 C9.45,9.75 9.75,9.45 9.75,9 Z M9.52499965,12.5249998 C9.59999965,12.4499998 9.67499971,12.3749998 9.67499971,12.2999998 C9.67499971,12.2249998 9.74999964,12.0749998 9.74999964,11.9999998 C9.74999964,11.9249998 9.74999964,11.7749998 9.67499971,11.6999998 C9.59999965,11.6249998 9.59999965,11.5499998 9.52499965,11.4749998 C9.52499965,11.4749998 9.44999966,11.3999998 9.37499966,11.3999998 C9.29999966,11.3999998 9.29999966,11.3249998 9.22499967,11.3249998 C8.92499968,11.1749998 8.62499969,11.2499998 8.3999997,11.4749998 C8.32499971,11.5499998 8.24999971,11.6249998 8.24999971,11.6999998 C8.24999971,11.7749998 8.17499971,11.8499998 8.17499971,11.9999998 C8.17499971,12.2249998 8.24999971,12.3749998 8.3999997,12.5249998 C8.5499997,12.6749998 8.69999969,12.7499998 8.92499968,12.7499998 C9.22499967,12.7499998 9.37499966,12.6749998 9.52499965,12.5249998 Z" id="path-1"></path>
    </defs>
    <g id="Page-1" stroke="none" stroke-width="1" fill="none" fill-rule="evenodd">
        <g id="BackUp-Tool---1" transform="translate(-322.000000, -190.000000)">
            <g id="Group-4" transform="translate(45.000000, 178.000000)">
                <g id="icon-/-alert-octagon-icon-/-alert-circle" transform="translate(277.000000, 12.000000)">
                    <mask id="mask-2" fill="white">
                        <use xlink:href="#path-1"></use>
                    </mask>
                    <use id="Mask" fill="#000000" fill-rule="nonzero" xlink:href="#path-1"></use>
                    <g id="Icon-Color-color-/-black" mask="url(#mask-2)" fill="#000000">
                        <rect id="Shape" x="0" y="0" width="18" height="18"></rect>
                    </g>
                </g>
            </g>
        </g>
    </g>
</svg>