<?xml version="1.0" encoding="UTF-8"?>
<svg width="18px" height="16px" viewBox="0 0 18 16" version="1.1" xmlns="http://www.w3.org/2000/svg" xmlns:xlink="http://www.w3.org/1999/xlink">
    <!-- Generator: sketchtool 58 (101010) - https://sketch.com -->
    <title>983BE5FD-269F-4E4D-AF58-1C47172D35BD</title>
    <desc>Created with sketchtool.</desc>
    <defs>
        <path d="M2.62499993,16.5000003 C2.24999994,16.5000003 1.87499995,16.425 1.49999997,16.2000003 C0.450000004,15.6000003 0.075000017,14.1750002 0.674999996,13.1250002 L7.04999977,2.475 C7.04999977,2.475 7.04999977,2.475 7.04999977,2.475 C7.19999977,2.175 7.49999976,1.87499999 7.79999974,1.72499999 C8.32499973,1.42499998 8.92499971,1.34999998 9.52499968,1.49999998 C10.1249997,1.64999999 10.5749996,2.02499999 10.9499996,2.55 L17.2499994,13.1250002 C17.4749994,13.5000002 17.5499994,13.8750002 17.5499994,14.2500002 C17.5499994,14.8500002 17.3249994,15.4500002 16.8749994,15.8250003 C16.4999994,16.2750003 15.9749995,16.5000003 15.3749995,16.5000003 L2.62499993,16.5000003 Z M8.32500001,3.29999991 L2.02500006,13.8750001 C1.80000007,14.2500001 1.95000006,14.7000001 2.32500006,14.9250001 C2.40000006,15.0000001 2.55000006,15.0000001 2.62500006,15.0000001 L15.2999999,15.0000001 C15.5249999,15.0000001 15.6749999,14.9250001 15.8249999,14.7750001 C15.9749999,14.6250001 16.0499999,14.4750001 16.0499999,14.2500001 C16.0499999,14.1000001 16.0499999,14.0250001 15.9749999,13.8750001 L9.67499999,3.29999991 C9.45,2.92499991 9,2.8499999 8.625,2.99999991 C8.47500001,3.07499991 8.40000001,3.14999991 8.32500001,3.29999991 Z M9.74999969,9.74999991 L9.74999969,6.74999991 C9.74999969,6.29999991 9.44999969,5.99999991 8.99999969,5.99999991 C8.54999969,5.99999991 8.24999969,6.29999991 8.24999969,6.74999991 L8.24999969,9.74999991 C8.24999969,10.1999999 8.54999969,10.4999999 8.99999969,10.4999999 C9.44999969,10.4999999 9.74999969,10.1999999 9.74999969,9.74999991 Z M9.52500005,13.2750003 C9.67500012,13.1250003 9.75000004,12.9750003 9.75000004,12.7500003 C9.75000004,12.6750003 9.75000004,12.5250003 9.67500012,12.4500003 C9.67500012,12.3750003 9.60000005,12.3000003 9.52500005,12.2250003 C9.52500005,12.2250003 9.45000006,12.1500003 9.37500006,12.1500003 C9.30000007,12.1500003 9.30000007,12.0750003 9.22500007,12.0750003 C9.15000007,12.0750003 9.15000007,12.0750003 9.07500008,12.0000003 C8.92500008,12.0000003 8.77500009,12.0000003 8.6250001,12.0750003 C8.5500001,12.0750003 8.4750001,12.1500003 8.40000011,12.2250003 C8.32500011,12.3000003 8.25000011,12.3750003 8.25000011,12.4500003 C8.25000011,12.5250003 8.17500012,12.6000003 8.17500012,12.7500003 C8.17500012,12.9750003 8.25000011,13.1250003 8.40000011,13.2750003 C8.5500001,13.4250003 8.70000009,13.5000003 8.92500008,13.5000003 C9.22500007,13.5000003 9.37500006,13.4250003 9.52500005,13.2750003 Z" id="path-1"></path>
    </defs>
    <g id="Page-1" stroke="none" stroke-width="1" fill="none" fill-rule="evenodd">
        <g id="BackUp-Tool---1" transform="translate(-667.000000, -191.000000)">
            <g id="Group-3" transform="translate(390.000000, 178.000000)">
                <g id="icon-/-alert-octagon-icon-/-alert-triangle" transform="translate(277.000000, 12.000000)">
                    <mask id="mask-2" fill="white">
                        <use xlink:href="#path-1"></use>
                    </mask>
                    <use id="Mask" fill="#000000" fill-rule="nonzero" xlink:href="#path-1"></use>
                    <g id="Icon-Color-color-/-black" mask="url(#mask-2)" fill="#000000">
                        <rect id="Shape" x="0" y="0" width="18" height="18"></rect>
                    </g>
                </g>
            </g>
        </g>
    </g>
</svg>