<?xml version="1.0" encoding="UTF-8"?>
<svg width="12px" height="12px" viewBox="0 0 12 12" version="1.1" xmlns="http://www.w3.org/2000/svg" xmlns:xlink="http://www.w3.org/1999/xlink">
    <!-- Generator: sketchtool 58 (101010) - https://sketch.com -->
    <title>E91C79A8-3C0A-46C6-BED9-E8AEE2667649</title>
    <desc>Created with sketchtool.</desc>
    <defs>
        <path d="M9.53033009,3.21966991 C9.8232233,3.51256313 9.8232233,3.98743687 9.53033009,4.28033009 L5.56,8.25 L14.25,8.25 C14.6642136,8.25 15,8.58578644 15,9 C15,9.41421356 14.6642136,9.75 14.25,9.75 L5.56,9.75 L9.53033009,13.7196699 C9.8232233,14.0125631 9.8232233,14.4874369 9.53033009,14.7803301 C9.23743687,15.0732233 8.76256313,15.0732233 8.46966991,14.7803301 L3.21966991,9.53033009 L3.15627192,9.45830264 C3.15455735,9.45608469 3.15285492,9.45385686 3.15116475,9.45161925 L3.21966991,9.53033009 C3.18522891,9.49588908 3.15483779,9.45893181 3.12849655,9.42005004 C3.11746126,9.40365806 3.10681304,9.38650806 3.09685504,9.36891584 C3.0887019,9.35462442 3.08105843,9.33999086 3.0739304,9.32517151 C3.065445,9.30751392 3.05744952,9.28909421 3.05018864,9.27030892 C3.04602848,9.25945649 3.04230301,9.24909131 3.03881291,9.23866466 C3.03157935,9.21728345 3.02517085,9.1948272 3.01980803,9.17196812 C3.01701468,9.1597261 3.01457582,9.14803282 3.01241813,9.136298 C3.00891107,9.11766744 3.00606315,9.09791564 3.00399994,9.077931 C3.00192429,9.05746806 3.00066463,9.03746552 3.00020172,9.01744798 C3.00006606,9.01160442 3,9.00580993 3,9 L3.00017932,8.98354891 C3.00062303,8.96319859 3.00189016,8.94286288 3.0039807,8.92259605 L3,9 C3,8.95315442 3.00429489,8.90731196 3.01251238,8.86284491 C3.01457582,8.85196718 3.01701468,8.8402739 3.01973472,8.82863298 C3.02517085,8.8051728 3.03157935,8.78271655 3.03898031,8.76071635 C3.04230301,8.75090869 3.04602848,8.74054351 3.04998933,8.73024809 C3.05744952,8.71090579 3.065445,8.69248608 3.07413984,8.67446717 C3.08105843,8.66000914 3.0887019,8.64537558 3.09686081,8.63095468 C3.10681304,8.61349194 3.11746126,8.59634194 3.1287629,8.57967093 C3.13568532,8.56933877 3.14317572,8.55887091 3.15096775,8.54855842 C3.17217116,8.52057056 3.19507007,8.49426976 3.21966991,8.46966991 L8.46966991,3.21966991 C8.76256313,2.9267767 9.23743687,2.9267767 9.53033009,3.21966991 Z" id="path-1"></path>
    </defs>
    <g id="Page-1" stroke="none" stroke-width="1" fill="none" fill-rule="evenodd">
        <g id="BackUp-Tool---2" transform="translate(-292.000000, -46.000000)">
            <g id="icon-/-arrow-left" transform="translate(289.000000, 43.000000)">
                <mask id="mask-2" fill="white">
                    <use xlink:href="#path-1"></use>
                </mask>
                <use id="Mask" fill="#000000" fill-rule="nonzero" xlink:href="#path-1"></use>
                <g id="Icon-Color-color-/-black" mask="url(#mask-2)" fill="#000000">
                    <rect id="Shape" x="0" y="0" width="18" height="18"></rect>
                </g>
            </g>
        </g>
    </g>
</svg>