<?xml version="1.0" encoding="UTF-8"?>
<svg width="18px" height="18px" viewBox="0 0 18 18" version="1.1" xmlns="http://www.w3.org/2000/svg" xmlns:xlink="http://www.w3.org/1999/xlink">
    <!-- Generator: sketchtool 58 (101010) - https://sketch.com -->
    <title>611FC315-5411-4536-B886-C241D5FAF391</title>
    <desc>Created with sketchtool.</desc>
    <defs>
        <path d="M9,0.75 C4.425,0.75 0.75,4.425 0.75,9 C0.75,13.575 4.425,17.25 9,17.25 C13.575,17.25 17.25,13.575 17.25,9 C17.25,4.425 13.575,0.75 9,0.75 Z M9,15.75 C5.25,15.75 2.25,12.75 2.25,9 C2.25,5.25 5.25,2.25 9,2.25 C12.75,2.25 15.75,5.25 15.75,9 C15.75,12.75 12.75,15.75 9,15.75 Z M11.775,10.725 C12.075,11.025 12.075,11.475 11.775,11.775 C11.625,11.925 11.475,12 11.25,12 C11.025,12 10.875,11.925 10.725,11.775 L8.475,9.525 C8.325,9.375 8.25,9.225 8.25,9 L8.25,4.5 C8.25,4.05 8.55,3.75 9,3.75 C9.45,3.75 9.75,4.05 9.75,4.5 L9.75,8.7 L11.775,10.725 Z" id="path-1"></path>
    </defs>
    <g id="Page-1" stroke="none" stroke-width="1" fill="none" fill-rule="evenodd">
        <g id="BackUp-Tool---1" transform="translate(-1012.000000, -190.000000)">
            <g id="Group-9" transform="translate(735.000000, 178.000000)">
                <g id="Group-8">
                    <g id="icon-/-alert-octagon-icon-/-clock" transform="translate(277.000000, 12.000000)">
                        <mask id="mask-2" fill="white">
                            <use xlink:href="#path-1"></use>
                        </mask>
                        <use id="Mask" fill="#000000" fill-rule="nonzero" xlink:href="#path-1"></use>
                        <g id="Icon-Color-color-/-black" mask="url(#mask-2)" fill="#000000">
                            <rect id="Shape" x="0" y="0" width="18" height="18"></rect>
                        </g>
                    </g>
                </g>
            </g>
        </g>
    </g>
</svg>