<?xml version="1.0" encoding="UTF-8"?>
<svg width="16px" height="18px" viewBox="0 0 16 18" version="1.1" xmlns="http://www.w3.org/2000/svg" xmlns:xlink="http://www.w3.org/1999/xlink">
    <!-- Generator: sketchtool 58 (101010) - https://sketch.com -->
    <title>2066492A-2162-41BE-A694-B42FF2F451A9</title>
    <desc>Created with sketchtool.</desc>
    <defs>
        <path d="M9,0.75 C5.4,0.75 1.5,1.725 1.5,3.75 L1.5,14.25 C1.5,16.275 5.4,17.25 9,17.25 C12.6,17.25 16.5,16.275 16.5,14.25 L16.5,3.75 C16.5,1.725 12.6,0.75 9,0.75 Z M15,9 C15,9.375 13.125,10.5 9,10.5 C4.875,10.5 3,9.375 3,9 L3,5.625 C4.425,6.375 6.75,6.75 9,6.75 C11.25,6.75 13.575,6.375 15,5.625 L15,9 Z M9,2.25 C12.9,2.25 15,3.375 15,3.75 C15,4.125 12.9,5.25 9,5.25 C5.1,5.25 3,4.125 3,3.75 C3,3.375 5.1,2.25 9,2.25 Z M9,15.75 C4.875,15.75 3,14.625 3,14.25 L3,10.875 C4.425,11.625 6.75,12 9,12 C11.25,12 13.575,11.625 15,10.875 L15,14.25 C15,14.625 13.125,15.75 9,15.75 Z" id="path-1"></path>
    </defs>
    <g id="Page-1" stroke="none" stroke-width="1" fill="none" fill-rule="evenodd">
        <g id="BackUp-Tool---1" transform="translate(-1358.000000, -190.000000)">
            <g id="Group-10" transform="translate(1080.000000, 178.000000)">
                <g id="Group-7">
                    <g id="icon-/-alert-octagon-icon-/-database" transform="translate(277.000000, 12.000000)">
                        <mask id="mask-2" fill="white">
                            <use xlink:href="#path-1"></use>
                        </mask>
                        <use id="Shape" fill="#000000" fill-rule="nonzero" xlink:href="#path-1"></use>
                        <g id="Icon-Color-color-/-black" mask="url(#mask-2)" fill="#000000">
                            <rect id="Shape" x="0" y="0" width="18" height="18"></rect>
                        </g>
                    </g>
                </g>
            </g>
        </g>
    </g>
</svg>